<svg width="1024" height="677" viewBox="0 0 1024 677" fill="none" xmlns="http://www.w3.org/2000/svg">
<g opacity="0.2" filter="url(#filter0_f_175_198)">
<ellipse cx="512.5" cy="-74" rx="670.5" ry="350" fill="#338AF3"/>
</g>
<path d="M33.0349 162C34.5302 162 35.6622 162.63 36.4308 163.891C37.2134 165.138 37.6047 166.953 37.6047 169.336C37.6047 171.719 37.2134 173.541 36.4308 174.802C35.6622 176.063 34.5302 176.693 33.0349 176.693C31.5536 176.693 30.4216 176.063 29.639 174.802C28.8564 173.541 28.4651 171.719 28.4651 169.336C28.4651 166.967 28.8564 165.152 29.639 163.891C30.4216 162.63 31.5536 162 33.0349 162ZM29.9534 169.336C29.9534 171.026 30.1072 172.35 30.4146 173.306L35.0683 164.099C34.5791 163.448 33.9013 163.122 33.0349 163.122C32.0706 163.122 31.316 163.635 30.771 164.66C30.2259 165.672 29.9534 167.23 29.9534 169.336ZM33.0349 175.55C34.0131 175.55 34.7748 175.044 35.3198 174.033C35.8648 173.008 36.1373 171.442 36.1373 169.336C36.1373 167.549 35.9627 166.163 35.6133 165.18L30.9596 174.469C31.4627 175.19 32.1545 175.55 33.0349 175.55Z" fill="url(#paint0_linear_175_198)" fill-opacity="0.6"/>
<path d="M34.2926 199.135H37.3741V200.236H29.3874V199.135H32.9511V187.455L29.5551 189.471L28.9682 188.536L33.1607 185.959H34.2926V199.135Z" fill="url(#paint1_linear_175_198)" fill-opacity="0.6"/>
<path d="M33.0349 209.502C34.5302 209.502 35.6622 210.133 36.4308 211.393C37.2134 212.64 37.6047 214.455 37.6047 216.838C37.6047 219.221 37.2134 221.043 36.4308 222.304C35.6622 223.565 34.5302 224.195 33.0349 224.195C31.5536 224.195 30.4216 223.565 29.639 222.304C28.8564 221.043 28.4651 219.221 28.4651 216.838C28.4651 214.469 28.8564 212.654 29.639 211.393C30.4216 210.133 31.5536 209.502 33.0349 209.502ZM29.9534 216.838C29.9534 218.529 30.1072 219.852 30.4146 220.808L35.0683 211.601C34.5791 210.95 33.9013 210.624 33.0349 210.624C32.0706 210.624 31.316 211.137 30.771 212.162C30.2259 213.174 29.9534 214.732 29.9534 216.838ZM33.0349 223.052C34.0131 223.052 34.7748 222.546 35.3198 221.535C35.8648 220.51 36.1373 218.944 36.1373 216.838C36.1373 215.051 35.9627 213.665 35.6133 212.682L30.9596 221.971C31.4627 222.692 32.1545 223.052 33.0349 223.052Z" fill="url(#paint2_linear_175_198)" fill-opacity="0.6"/>
<path d="M34.2926 246.637H37.3741V247.738H29.3874V246.637H32.9511V234.957L29.5551 236.973L28.9682 236.038L33.1607 233.461H34.2926V246.637Z" fill="url(#paint3_linear_175_198)" fill-opacity="0.6"/>
<path d="M34.2926 270.388H37.3741V271.489H29.3874V270.388H32.9511V258.708L29.5551 260.724L28.9682 259.789L33.1607 257.212H34.2926V270.388Z" fill="url(#paint4_linear_175_198)" fill-opacity="0.6"/>
<path d="M33.0349 280.755C34.5302 280.755 35.6622 281.386 36.4308 282.646C37.2134 283.893 37.6047 285.708 37.6047 288.091C37.6047 290.474 37.2134 292.296 36.4308 293.557C35.6622 294.818 34.5302 295.448 33.0349 295.448C31.5536 295.448 30.4216 294.818 29.639 293.557C28.8564 292.296 28.4651 290.474 28.4651 288.091C28.4651 285.722 28.8564 283.907 29.639 282.646C30.4216 281.386 31.5536 280.755 33.0349 280.755ZM29.9534 288.091C29.9534 289.782 30.1072 291.105 30.4146 292.061L35.0683 282.854C34.5791 282.203 33.9013 281.878 33.0349 281.878C32.0706 281.878 31.316 282.39 30.771 283.415C30.2259 284.427 29.9534 285.985 29.9534 288.091ZM33.0349 294.305C34.0131 294.305 34.7748 293.8 35.3198 292.788C35.8648 291.763 36.1373 290.197 36.1373 288.091C36.1373 286.304 35.9627 284.919 35.6133 283.935L30.9596 293.225C31.4627 293.945 32.1545 294.305 33.0349 294.305Z" fill="url(#paint5_linear_175_198)" fill-opacity="0.6"/>
<path d="M34.2926 317.89H37.3741V318.992H29.3874V317.89H32.9511V306.21L29.5551 308.226L28.9682 307.291L33.1607 304.714H34.2926V317.89Z" fill="url(#paint6_linear_175_198)" fill-opacity="0.6"/>
<path d="M33.0349 328.257C34.5302 328.257 35.6622 328.888 36.4308 330.149C37.2134 331.396 37.6047 333.211 37.6047 335.594C37.6047 337.977 37.2134 339.798 36.4308 341.059C35.6622 342.32 34.5302 342.95 33.0349 342.95C31.5536 342.95 30.4216 342.32 29.639 341.059C28.8564 339.798 28.4651 337.977 28.4651 335.594C28.4651 333.224 28.8564 331.409 29.639 330.149C30.4216 328.888 31.5536 328.257 33.0349 328.257ZM29.9534 335.594C29.9534 337.284 30.1072 338.607 30.4146 339.563L35.0683 330.356C34.5791 329.705 33.9013 329.38 33.0349 329.38C32.0706 329.38 31.316 329.892 30.771 330.918C30.2259 331.929 29.9534 333.488 29.9534 335.594ZM33.0349 341.807C34.0131 341.807 34.7748 341.302 35.3198 340.29C35.8648 339.265 36.1373 337.699 36.1373 335.594C36.1373 333.806 35.9627 332.421 35.6133 331.437L30.9596 340.727C31.4627 341.447 32.1545 341.807 33.0349 341.807Z" fill="url(#paint7_linear_175_198)" fill-opacity="0.6"/>
<path d="M33.0349 352.008C34.5302 352.008 35.6622 352.639 36.4308 353.9C37.2134 355.147 37.6047 356.962 37.6047 359.345C37.6047 361.728 37.2134 363.549 36.4308 364.81C35.6622 366.071 34.5302 366.701 33.0349 366.701C31.5536 366.701 30.4216 366.071 29.639 364.81C28.8564 363.549 28.4651 361.728 28.4651 359.345C28.4651 356.975 28.8564 355.16 29.639 353.9C30.4216 352.639 31.5536 352.008 33.0349 352.008ZM29.9534 359.345C29.9534 361.035 30.1072 362.358 30.4146 363.314L35.0683 354.107C34.5791 353.456 33.9013 353.131 33.0349 353.131C32.0706 353.131 31.316 353.643 30.771 354.669C30.2259 355.68 29.9534 357.239 29.9534 359.345ZM33.0349 365.558C34.0131 365.558 34.7748 365.053 35.3198 364.041C35.8648 363.016 36.1373 361.451 36.1373 359.345C36.1373 357.557 35.9627 356.172 35.6133 355.188L30.9596 364.478C31.4627 365.198 32.1545 365.558 33.0349 365.558Z" fill="url(#paint8_linear_175_198)" fill-opacity="0.6"/>
<path d="M34.2926 389.143H37.3741V390.245H29.3874V389.143H32.9511V377.464L29.5551 379.48L28.9682 378.544L33.1607 375.967H34.2926V389.143Z" fill="url(#paint9_linear_175_198)" fill-opacity="0.6"/>
<path d="M33.0349 399.511C34.5302 399.511 35.6622 400.141 36.4308 401.402C37.2134 402.649 37.6047 404.464 37.6047 406.847C37.6047 409.23 37.2134 411.052 36.4308 412.312C35.6622 413.573 34.5302 414.204 33.0349 414.204C31.5536 414.204 30.4216 413.573 29.639 412.312C28.8564 411.052 28.4651 409.23 28.4651 406.847C28.4651 404.478 28.8564 402.663 29.639 401.402C30.4216 400.141 31.5536 399.511 33.0349 399.511ZM29.9534 406.847C29.9534 408.537 30.1072 409.86 30.4146 410.816L35.0683 401.61C34.5791 400.958 33.9013 400.633 33.0349 400.633C32.0706 400.633 31.316 401.145 30.771 402.171C30.2259 403.182 29.9534 404.741 29.9534 406.847ZM33.0349 413.061C34.0131 413.061 34.7748 412.555 35.3198 411.543C35.8648 410.518 36.1373 408.953 36.1373 406.847C36.1373 405.059 35.9627 403.674 35.6133 402.69L30.9596 411.98C31.4627 412.7 32.1545 413.061 33.0349 413.061Z" fill="url(#paint10_linear_175_198)" fill-opacity="0.6"/>
<path d="M34.2926 436.645H37.3741V437.747H29.3874V436.645H32.9511V424.966L29.5551 426.982L28.9682 426.046L33.1607 423.469H34.2926V436.645Z" fill="url(#paint11_linear_175_198)" fill-opacity="0.6"/>
<path d="M34.2926 460.396H37.3741V461.498H29.3874V460.396H32.9511V448.717L29.5551 450.733L28.9682 449.798L33.1607 447.221H34.2926V460.396Z" fill="url(#paint12_linear_175_198)" fill-opacity="0.6"/>
<path d="M71.9651 209.502C73.4604 209.502 74.5924 210.133 75.361 211.393C76.1436 212.64 76.5349 214.455 76.5349 216.838C76.5349 219.221 76.1436 221.043 75.361 222.304C74.5924 223.565 73.4604 224.195 71.9651 224.195C70.4838 224.195 69.3518 223.565 68.5692 222.304C67.7866 221.043 67.3953 219.221 67.3953 216.838C67.3953 214.469 67.7866 212.654 68.5692 211.393C69.3518 210.133 70.4838 209.502 71.9651 209.502ZM68.8836 216.838C68.8836 218.529 69.0374 219.852 69.3448 220.808L73.9985 211.601C73.5093 210.95 72.8315 210.624 71.9651 210.624C71.0008 210.624 70.2462 211.137 69.7012 212.162C69.1561 213.174 68.8836 214.732 68.8836 216.838ZM71.9651 223.052C72.9433 223.052 73.705 222.546 74.25 221.535C74.795 220.51 75.0675 218.944 75.0675 216.838C75.0675 215.051 74.8928 213.665 74.5435 212.682L69.8898 221.971C70.3929 222.692 71.0847 223.052 71.9651 223.052Z" fill="url(#paint13_linear_175_198)" fill-opacity="0.6"/>
<path d="M73.2228 246.637H76.3043V247.738H68.3176V246.637H71.8812V234.957L68.4853 236.973L67.8984 236.038L72.0909 233.461H73.2228V246.637Z" fill="url(#paint14_linear_175_198)" fill-opacity="0.6"/>
<path d="M71.9651 257.004C73.4604 257.004 74.5924 257.635 75.361 258.895C76.1436 260.142 76.5349 261.957 76.5349 264.34C76.5349 266.723 76.1436 268.545 75.361 269.806C74.5924 271.067 73.4604 271.697 71.9651 271.697C70.4838 271.697 69.3518 271.067 68.5692 269.806C67.7866 268.545 67.3953 266.723 67.3953 264.34C67.3953 261.971 67.7866 260.156 68.5692 258.895C69.3518 257.635 70.4838 257.004 71.9651 257.004ZM68.8836 264.34C68.8836 266.031 69.0374 267.354 69.3448 268.31L73.9985 259.103C73.5093 258.452 72.8315 258.126 71.9651 258.126C71.0008 258.126 70.2462 258.639 69.7012 259.664C69.1561 260.676 68.8836 262.234 68.8836 264.34ZM71.9651 270.554C72.9433 270.554 73.705 270.049 74.25 269.037C74.795 268.012 75.0675 266.446 75.0675 264.34C75.0675 262.553 74.8928 261.168 74.5435 260.184L69.8898 269.474C70.3929 270.194 71.0847 270.554 71.9651 270.554Z" fill="url(#paint15_linear_175_198)" fill-opacity="0.6"/>
<path d="M71.9651 280.755C73.4604 280.755 74.5924 281.386 75.361 282.646C76.1436 283.893 76.5349 285.708 76.5349 288.091C76.5349 290.474 76.1436 292.296 75.361 293.557C74.5924 294.818 73.4604 295.448 71.9651 295.448C70.4838 295.448 69.3518 294.818 68.5692 293.557C67.7866 292.296 67.3953 290.474 67.3953 288.091C67.3953 285.722 67.7866 283.907 68.5692 282.646C69.3518 281.386 70.4838 280.755 71.9651 280.755ZM68.8836 288.091C68.8836 289.782 69.0374 291.105 69.3448 292.061L73.9985 282.854C73.5093 282.203 72.8315 281.878 71.9651 281.878C71.0008 281.878 70.2462 282.39 69.7012 283.415C69.1561 284.427 68.8836 285.985 68.8836 288.091ZM71.9651 294.305C72.9433 294.305 73.705 293.8 74.25 292.788C74.795 291.763 75.0675 290.197 75.0675 288.091C75.0675 286.304 74.8928 284.919 74.5435 283.935L69.8898 293.225C70.3929 293.945 71.0847 294.305 71.9651 294.305Z" fill="url(#paint16_linear_175_198)" fill-opacity="0.6"/>
<path d="M73.2228 317.89H76.3043V318.992H68.3176V317.89H71.8812V306.21L68.4853 308.226L67.8984 307.291L72.0909 304.714H73.2228V317.89Z" fill="url(#paint17_linear_175_198)" fill-opacity="0.6"/>
<path d="M71.9651 328.257C73.4604 328.257 74.5924 328.888 75.361 330.149C76.1436 331.396 76.5349 333.211 76.5349 335.594C76.5349 337.977 76.1436 339.798 75.361 341.059C74.5924 342.32 73.4604 342.95 71.9651 342.95C70.4838 342.95 69.3518 342.32 68.5692 341.059C67.7866 339.798 67.3953 337.977 67.3953 335.594C67.3953 333.224 67.7866 331.409 68.5692 330.149C69.3518 328.888 70.4838 328.257 71.9651 328.257ZM68.8836 335.594C68.8836 337.284 69.0374 338.607 69.3448 339.563L73.9985 330.356C73.5093 329.705 72.8315 329.38 71.9651 329.38C71.0008 329.38 70.2462 329.892 69.7012 330.918C69.1561 331.929 68.8836 333.488 68.8836 335.594ZM71.9651 341.807C72.9433 341.807 73.705 341.302 74.25 340.29C74.795 339.265 75.0675 337.699 75.0675 335.594C75.0675 333.806 74.8928 332.421 74.5435 331.437L69.8898 340.727C70.3929 341.447 71.0847 341.807 71.9651 341.807Z" fill="url(#paint18_linear_175_198)" fill-opacity="0.6"/>
<path d="M73.2228 365.392H76.3043V366.494H68.3176V365.392H71.8812V353.713L68.4853 355.728L67.8984 354.793L72.0909 352.216H73.2228V365.392Z" fill="url(#paint19_linear_175_198)" fill-opacity="0.6"/>
<path d="M71.9651 375.76C73.4604 375.76 74.5924 376.39 75.361 377.651C76.1436 378.898 76.5349 380.713 76.5349 383.096C76.5349 385.479 76.1436 387.301 75.361 388.561C74.5924 389.822 73.4604 390.453 71.9651 390.453C70.4838 390.453 69.3518 389.822 68.5692 388.561C67.7866 387.301 67.3953 385.479 67.3953 383.096C67.3953 380.726 67.7866 378.911 68.5692 377.651C69.3518 376.39 70.4838 375.76 71.9651 375.76ZM68.8836 383.096C68.8836 384.786 69.0374 386.109 69.3448 387.065L73.9985 377.859C73.5093 377.207 72.8315 376.882 71.9651 376.882C71.0008 376.882 70.2462 377.394 69.7012 378.42C69.1561 379.431 68.8836 380.99 68.8836 383.096ZM71.9651 389.31C72.9433 389.31 73.705 388.804 74.25 387.792C74.795 386.767 75.0675 385.202 75.0675 383.096C75.0675 381.308 74.8928 379.923 74.5435 378.939L69.8898 388.229C70.3929 388.949 71.0847 389.31 71.9651 389.31Z" fill="url(#paint20_linear_175_198)" fill-opacity="0.6"/>
<path d="M71.9651 399.511C73.4604 399.511 74.5924 400.141 75.361 401.402C76.1436 402.649 76.5349 404.464 76.5349 406.847C76.5349 409.23 76.1436 411.052 75.361 412.312C74.5924 413.573 73.4604 414.204 71.9651 414.204C70.4838 414.204 69.3518 413.573 68.5692 412.312C67.7866 411.052 67.3953 409.23 67.3953 406.847C67.3953 404.478 67.7866 402.663 68.5692 401.402C69.3518 400.141 70.4838 399.511 71.9651 399.511ZM68.8836 406.847C68.8836 408.537 69.0374 409.86 69.3448 410.816L73.9985 401.61C73.5093 400.958 72.8315 400.633 71.9651 400.633C71.0008 400.633 70.2462 401.145 69.7012 402.171C69.1561 403.182 68.8836 404.741 68.8836 406.847ZM71.9651 413.061C72.9433 413.061 73.705 412.555 74.25 411.543C74.795 410.518 75.0675 408.953 75.0675 406.847C75.0675 405.059 74.8928 403.674 74.5435 402.69L69.8898 411.98C70.3929 412.7 71.0847 413.061 71.9651 413.061Z" fill="url(#paint21_linear_175_198)" fill-opacity="0.6"/>
<path d="M73.2228 436.645H76.3043V437.747H68.3176V436.645H71.8812V424.966L68.4853 426.982L67.8984 426.046L72.0909 423.469H73.2228V436.645Z" fill="url(#paint22_linear_175_198)" fill-opacity="0.6"/>
<path d="M71.9651 447.013C73.4604 447.013 74.5924 447.643 75.361 448.904C76.1436 450.151 76.5349 451.966 76.5349 454.349C76.5349 456.732 76.1436 458.554 75.361 459.815C74.5924 461.075 73.4604 461.706 71.9651 461.706C70.4838 461.706 69.3518 461.075 68.5692 459.815C67.7866 458.554 67.3953 456.732 67.3953 454.349C67.3953 451.98 67.7866 450.165 68.5692 448.904C69.3518 447.643 70.4838 447.013 71.9651 447.013ZM68.8836 454.349C68.8836 456.039 69.0374 457.362 69.3448 458.318L73.9985 449.112C73.5093 448.461 72.8315 448.135 71.9651 448.135C71.0008 448.135 70.2462 448.648 69.7012 449.673C69.1561 450.684 68.8836 452.243 68.8836 454.349ZM71.9651 460.563C72.9433 460.563 73.705 460.057 74.25 459.046C74.795 458.02 75.0675 456.455 75.0675 454.349C75.0675 452.562 74.8928 451.176 74.5435 450.192L69.8898 459.482C70.3929 460.202 71.0847 460.563 71.9651 460.563Z" fill="url(#paint23_linear_175_198)" fill-opacity="0.6"/>
<path d="M73.2228 484.148H76.3043V485.249H68.3176V484.148H71.8812V472.468L68.4853 474.484L67.8984 473.549L72.0909 470.972H73.2228V484.148Z" fill="url(#paint24_linear_175_198)" fill-opacity="0.6"/>
<path d="M73.2228 507.899H76.3043V509H68.3176V507.899H71.8812V496.219L68.4853 498.235L67.8984 497.3L72.0909 494.723H73.2228V507.899Z" fill="url(#paint25_linear_175_198)" fill-opacity="0.6"/>
<path d="M13.5698 233.253C15.0651 233.253 16.1971 233.884 16.9657 235.144C17.7483 236.391 18.1396 238.206 18.1396 240.589C18.1396 242.972 17.7483 244.794 16.9657 246.055C16.1971 247.316 15.0651 247.946 13.5698 247.946C12.0885 247.946 10.9565 247.316 10.1739 246.055C9.3913 244.794 9 242.972 9 240.589C9 238.22 9.3913 236.405 10.1739 235.144C10.9565 233.884 12.0885 233.253 13.5698 233.253ZM10.4883 240.589C10.4883 242.28 10.6421 243.603 10.9495 244.559L15.6032 235.352C15.114 234.701 14.4363 234.375 13.5698 234.375C12.6055 234.375 11.8509 234.888 11.3059 235.913C10.7608 236.925 10.4883 238.483 10.4883 240.589ZM13.5698 246.803C14.5481 246.803 15.3097 246.297 15.8547 245.286C16.3997 244.261 16.6722 242.695 16.6722 240.589C16.6722 238.802 16.4976 237.417 16.1482 236.433L11.4945 245.722C11.9976 246.443 12.6894 246.803 13.5698 246.803Z" fill="url(#paint26_linear_175_198)" fill-opacity="0.6"/>
<path d="M13.5698 257.004C15.0651 257.004 16.1971 257.635 16.9657 258.895C17.7483 260.142 18.1396 261.957 18.1396 264.34C18.1396 266.723 17.7483 268.545 16.9657 269.806C16.1971 271.067 15.0651 271.697 13.5698 271.697C12.0885 271.697 10.9565 271.067 10.1739 269.806C9.3913 268.545 9 266.723 9 264.34C9 261.971 9.3913 260.156 10.1739 258.895C10.9565 257.635 12.0885 257.004 13.5698 257.004ZM10.4883 264.34C10.4883 266.031 10.6421 267.354 10.9495 268.31L15.6032 259.103C15.114 258.452 14.4363 258.126 13.5698 258.126C12.6055 258.126 11.8509 258.639 11.3059 259.664C10.7608 260.676 10.4883 262.234 10.4883 264.34ZM13.5698 270.554C14.5481 270.554 15.3097 270.049 15.8547 269.037C16.3997 268.012 16.6722 266.446 16.6722 264.34C16.6722 262.553 16.4976 261.168 16.1482 260.184L11.4945 269.474C11.9976 270.194 12.6894 270.554 13.5698 270.554Z" fill="url(#paint27_linear_175_198)" fill-opacity="0.6"/>
<path d="M14.8276 294.139H17.909V295.24H9.92235V294.139H13.486V282.459L10.09 284.475L9.5031 283.54L13.6956 280.963H14.8276V294.139Z" fill="url(#paint28_linear_175_198)" fill-opacity="0.6"/>
<path d="M13.5698 304.506C15.0651 304.506 16.1971 305.137 16.9657 306.398C17.7483 307.644 18.1396 309.459 18.1396 311.842C18.1396 314.225 17.7483 316.047 16.9657 317.308C16.1971 318.569 15.0651 319.199 13.5698 319.199C12.0885 319.199 10.9565 318.569 10.1739 317.308C9.3913 316.047 9 314.225 9 311.842C9 309.473 9.3913 307.658 10.1739 306.398C10.9565 305.137 12.0885 304.506 13.5698 304.506ZM10.4883 311.842C10.4883 313.533 10.6421 314.856 10.9495 315.812L15.6032 306.605C15.114 305.954 14.4363 305.629 13.5698 305.629C12.6055 305.629 11.8509 306.141 11.3059 307.166C10.7608 308.178 10.4883 309.737 10.4883 311.842ZM13.5698 318.056C14.5481 318.056 15.3097 317.551 15.8547 316.539C16.3997 315.514 16.6722 313.948 16.6722 311.842C16.6722 310.055 16.4976 308.67 16.1482 307.686L11.4945 316.976C11.9976 317.696 12.6894 318.056 13.5698 318.056Z" fill="url(#paint29_linear_175_198)" fill-opacity="0.6"/>
<path d="M14.8276 341.641H17.909V342.743H9.92235V341.641H13.486V329.962L10.09 331.977L9.5031 331.042L13.6956 328.465H14.8276V341.641Z" fill="url(#paint30_linear_175_198)" fill-opacity="0.6"/>
<path d="M14.8276 365.392H17.909V366.494H9.92235V365.392H13.486V353.713L10.09 355.728L9.5031 354.793L13.6956 352.216H14.8276V365.392Z" fill="url(#paint31_linear_175_198)" fill-opacity="0.6"/>
<path d="M53.7577 199.135H56.8392V200.236H48.8525V199.135H52.4162V187.455L49.0202 189.471L48.4333 188.536L52.6258 185.959H53.7577V199.135Z" fill="url(#paint32_linear_175_198)" fill-opacity="0.6"/>
<path d="M52.5 209.502C53.9953 209.502 55.1273 210.133 55.8959 211.393C56.6785 212.64 57.0698 214.455 57.0698 216.838C57.0698 219.221 56.6785 221.043 55.8959 222.304C55.1273 223.565 53.9953 224.195 52.5 224.195C51.0187 224.195 49.8867 223.565 49.1041 222.304C48.3215 221.043 47.9302 219.221 47.9302 216.838C47.9302 214.469 48.3215 212.654 49.1041 211.393C49.8867 210.133 51.0187 209.502 52.5 209.502ZM49.4185 216.838C49.4185 218.529 49.5723 219.852 49.8797 220.808L54.5334 211.601C54.0442 210.95 53.3664 210.624 52.5 210.624C51.5357 210.624 50.7811 211.137 50.2361 212.162C49.691 213.174 49.4185 214.732 49.4185 216.838ZM52.5 223.052C53.4782 223.052 54.2399 222.546 54.7849 221.535C55.3299 220.51 55.6024 218.944 55.6024 216.838C55.6024 215.051 55.4277 213.665 55.0784 212.682L50.4247 221.971C50.9278 222.692 51.6196 223.052 52.5 223.052Z" fill="url(#paint33_linear_175_198)" fill-opacity="0.6"/>
<path d="M53.7577 246.637H56.8392V247.738H48.8525V246.637H52.4162V234.957L49.0202 236.973L48.4333 236.038L52.6258 233.461H53.7577V246.637Z" fill="url(#paint34_linear_175_198)" fill-opacity="0.6"/>
<path d="M53.7577 270.388H56.8392V271.489H48.8525V270.388H52.4162V258.708L49.0202 260.724L48.4333 259.789L52.6258 257.212H53.7577V270.388Z" fill="url(#paint35_linear_175_198)" fill-opacity="0.6"/>
<path d="M52.5 280.755C53.9953 280.755 55.1273 281.386 55.8959 282.646C56.6785 283.893 57.0698 285.708 57.0698 288.091C57.0698 290.474 56.6785 292.296 55.8959 293.557C55.1273 294.818 53.9953 295.448 52.5 295.448C51.0187 295.448 49.8867 294.818 49.1041 293.557C48.3215 292.296 47.9302 290.474 47.9302 288.091C47.9302 285.722 48.3215 283.907 49.1041 282.646C49.8867 281.386 51.0187 280.755 52.5 280.755ZM49.4185 288.091C49.4185 289.782 49.5723 291.105 49.8797 292.061L54.5334 282.854C54.0442 282.203 53.3664 281.878 52.5 281.878C51.5357 281.878 50.7811 282.39 50.2361 283.415C49.691 284.427 49.4185 285.985 49.4185 288.091ZM52.5 294.305C53.4782 294.305 54.2399 293.8 54.7849 292.788C55.3299 291.763 55.6024 290.197 55.6024 288.091C55.6024 286.304 55.4277 284.919 55.0784 283.935L50.4247 293.225C50.9278 293.945 51.6196 294.305 52.5 294.305Z" fill="url(#paint36_linear_175_198)" fill-opacity="0.6"/>
<path d="M53.7577 317.89H56.8392V318.992H48.8525V317.89H52.4162V306.21L49.0202 308.226L48.4333 307.291L52.6258 304.714H53.7577V317.89Z" fill="url(#paint37_linear_175_198)" fill-opacity="0.6"/>
<path d="M53.7577 341.641H56.8392V342.743H48.8525V341.641H52.4162V329.962L49.0202 331.977L48.4333 331.042L52.6258 328.465H53.7577V341.641Z" fill="url(#paint38_linear_175_198)" fill-opacity="0.6"/>
<path d="M52.5 352.008C53.9953 352.008 55.1273 352.639 55.8959 353.9C56.6785 355.147 57.0698 356.962 57.0698 359.345C57.0698 361.728 56.6785 363.549 55.8959 364.81C55.1273 366.071 53.9953 366.701 52.5 366.701C51.0187 366.701 49.8867 366.071 49.1041 364.81C48.3215 363.549 47.9302 361.728 47.9302 359.345C47.9302 356.975 48.3215 355.16 49.1041 353.9C49.8867 352.639 51.0187 352.008 52.5 352.008ZM49.4185 359.345C49.4185 361.035 49.5723 362.358 49.8797 363.314L54.5334 354.107C54.0442 353.456 53.3664 353.131 52.5 353.131C51.5357 353.131 50.7811 353.643 50.2361 354.669C49.691 355.68 49.4185 357.239 49.4185 359.345ZM52.5 365.558C53.4782 365.558 54.2399 365.053 54.7849 364.041C55.3299 363.016 55.6024 361.451 55.6024 359.345C55.6024 357.557 55.4277 356.172 55.0784 355.188L50.4247 364.478C50.9278 365.198 51.6196 365.558 52.5 365.558Z" fill="url(#paint39_linear_175_198)" fill-opacity="0.6"/>
<path d="M53.7577 389.143H56.8392V390.245H48.8525V389.143H52.4162V377.464L49.0202 379.48L48.4333 378.544L52.6258 375.967H53.7577V389.143Z" fill="url(#paint40_linear_175_198)" fill-opacity="0.6"/>
<path d="M52.5 399.511C53.9953 399.511 55.1273 400.141 55.8959 401.402C56.6785 402.649 57.0698 404.464 57.0698 406.847C57.0698 409.23 56.6785 411.052 55.8959 412.312C55.1273 413.573 53.9953 414.204 52.5 414.204C51.0187 414.204 49.8867 413.573 49.1041 412.312C48.3215 411.052 47.9302 409.23 47.9302 406.847C47.9302 404.478 48.3215 402.663 49.1041 401.402C49.8867 400.141 51.0187 399.511 52.5 399.511ZM49.4185 406.847C49.4185 408.537 49.5723 409.86 49.8797 410.816L54.5334 401.61C54.0442 400.958 53.3664 400.633 52.5 400.633C51.5357 400.633 50.7811 401.145 50.2361 402.171C49.691 403.182 49.4185 404.741 49.4185 406.847ZM52.5 413.061C53.4782 413.061 54.2399 412.555 54.7849 411.543C55.3299 410.518 55.6024 408.953 55.6024 406.847C55.6024 405.059 55.4277 403.674 55.0784 402.69L50.4247 411.98C50.9278 412.7 51.6196 413.061 52.5 413.061Z" fill="url(#paint41_linear_175_198)" fill-opacity="0.6"/>
<path d="M91.4302 185.751C92.9255 185.751 94.0575 186.381 94.8261 187.642C95.6087 188.889 96 190.704 96 193.087C96 195.47 95.6087 197.292 94.8261 198.553C94.0575 199.814 92.9255 200.444 91.4302 200.444C89.9489 200.444 88.8169 199.814 88.0343 198.553C87.2517 197.292 86.8604 195.47 86.8604 193.087C86.8604 190.718 87.2517 188.903 88.0343 187.642C88.8169 186.381 89.9489 185.751 91.4302 185.751ZM88.3487 193.087C88.3487 194.777 88.5024 196.101 88.8099 197.057L93.4636 187.85C92.9744 187.199 92.2966 186.873 91.4302 186.873C90.4659 186.873 89.7113 187.386 89.1663 188.411C88.6212 189.423 88.3487 190.981 88.3487 193.087ZM91.4302 199.301C92.4084 199.301 93.1701 198.795 93.7151 197.784C94.2601 196.759 94.5326 195.193 94.5326 193.087C94.5326 191.3 94.3579 189.914 94.0086 188.931L89.3549 198.22C89.858 198.941 90.5498 199.301 91.4302 199.301Z" fill="url(#paint42_linear_175_198)" fill-opacity="0.6"/>
<path d="M92.6879 222.886H95.7694V223.987H87.7827V222.886H91.3463V211.206L87.9504 213.222L87.3635 212.287L91.556 209.71H92.6879V222.886Z" fill="url(#paint43_linear_175_198)" fill-opacity="0.6"/>
<path d="M92.6879 246.637H95.7694V247.738H87.7827V246.637H91.3463V234.957L87.9504 236.973L87.3635 236.038L91.556 233.461H92.6879V246.637Z" fill="url(#paint44_linear_175_198)" fill-opacity="0.6"/>
<path d="M91.4302 257.004C92.9255 257.004 94.0575 257.635 94.8261 258.895C95.6087 260.142 96 261.957 96 264.34C96 266.723 95.6087 268.545 94.8261 269.806C94.0575 271.067 92.9255 271.697 91.4302 271.697C89.9489 271.697 88.8169 271.067 88.0343 269.806C87.2517 268.545 86.8604 266.723 86.8604 264.34C86.8604 261.971 87.2517 260.156 88.0343 258.895C88.8169 257.635 89.9489 257.004 91.4302 257.004ZM88.3487 264.34C88.3487 266.031 88.5024 267.354 88.8099 268.31L93.4636 259.103C92.9744 258.452 92.2966 258.126 91.4302 258.126C90.4659 258.126 89.7113 258.639 89.1663 259.664C88.6212 260.676 88.3487 262.234 88.3487 264.34ZM91.4302 270.554C92.4084 270.554 93.1701 270.049 93.7151 269.037C94.2601 268.012 94.5326 266.446 94.5326 264.34C94.5326 262.553 94.3579 261.168 94.0086 260.184L89.3549 269.474C89.858 270.194 90.5498 270.554 91.4302 270.554Z" fill="url(#paint45_linear_175_198)" fill-opacity="0.6"/>
<path d="M91.4302 280.755C92.9255 280.755 94.0575 281.386 94.8261 282.646C95.6087 283.893 96 285.708 96 288.091C96 290.474 95.6087 292.296 94.8261 293.557C94.0575 294.818 92.9255 295.448 91.4302 295.448C89.9489 295.448 88.8169 294.818 88.0343 293.557C87.2517 292.296 86.8604 290.474 86.8604 288.091C86.8604 285.722 87.2517 283.907 88.0343 282.646C88.8169 281.386 89.9489 280.755 91.4302 280.755ZM88.3487 288.091C88.3487 289.782 88.5024 291.105 88.8099 292.061L93.4636 282.854C92.9744 282.203 92.2966 281.878 91.4302 281.878C90.4659 281.878 89.7113 282.39 89.1663 283.415C88.6212 284.427 88.3487 285.985 88.3487 288.091ZM91.4302 294.305C92.4084 294.305 93.1701 293.8 93.7151 292.788C94.2601 291.763 94.5326 290.197 94.5326 288.091C94.5326 286.304 94.3579 284.919 94.0086 283.935L89.3549 293.225C89.858 293.945 90.5498 294.305 91.4302 294.305Z" fill="url(#paint46_linear_175_198)" fill-opacity="0.6"/>
<g opacity="0.6">
<path d="M919.93 -138C921.356 -138 922.436 -137.395 923.17 -136.185C923.916 -134.989 924.29 -133.247 924.29 -130.96C924.29 -128.673 923.916 -126.925 923.17 -125.715C922.436 -124.505 921.356 -123.9 919.93 -123.9C918.517 -123.9 917.437 -124.505 916.69 -125.715C915.943 -126.925 915.57 -128.673 915.57 -130.96C915.57 -133.233 915.943 -134.975 916.69 -136.185C917.437 -137.395 918.517 -138 919.93 -138ZM916.99 -130.96C916.99 -129.338 917.137 -128.068 917.43 -127.151L921.87 -135.986C921.403 -136.611 920.756 -136.923 919.93 -136.923C919.01 -136.923 918.29 -136.431 917.77 -135.447C917.25 -134.477 916.99 -132.981 916.99 -130.96ZM919.93 -124.997C920.863 -124.997 921.59 -125.482 922.11 -126.453C922.63 -127.436 922.89 -128.939 922.89 -130.96C922.89 -132.675 922.723 -134.005 922.39 -134.949L917.95 -126.034C918.43 -125.342 919.09 -124.997 919.93 -124.997Z" fill="url(#paint47_linear_175_198)"/>
<path d="M921.13 -102.363H924.07V-101.306H916.45V-102.363H919.85V-113.572L916.61 -111.637L916.05 -112.535L920.05 -115.008H921.13V-102.363Z" fill="url(#paint48_linear_175_198)"/>
<path d="M919.93 -92.4144C921.356 -92.4144 922.436 -91.8094 923.17 -90.5995C923.916 -89.4029 924.29 -87.6611 924.29 -85.3743C924.29 -83.0874 923.916 -81.339 923.17 -80.1291C922.436 -78.9192 921.356 -78.3142 919.93 -78.3142C918.517 -78.3142 917.437 -78.9192 916.69 -80.1291C915.943 -81.339 915.57 -83.0874 915.57 -85.3743C915.57 -87.6478 915.943 -89.3896 916.69 -90.5995C917.437 -91.8094 918.517 -92.4144 919.93 -92.4144ZM916.99 -85.3743C916.99 -83.7522 917.137 -82.4824 917.43 -81.565L921.87 -90.4001C921.403 -91.025 920.756 -91.3374 919.93 -91.3374C919.01 -91.3374 918.29 -90.8455 917.77 -89.8616C917.25 -88.891 916.99 -87.3952 916.99 -85.3743ZM919.93 -79.4111C920.863 -79.4111 921.59 -79.8964 922.11 -80.867C922.63 -81.8509 922.89 -83.3533 922.89 -85.3743C922.89 -87.0894 922.723 -88.419 922.39 -89.363L917.95 -80.4482C918.43 -79.7568 919.09 -79.4111 919.93 -79.4111Z" fill="url(#paint49_linear_175_198)"/>
<path d="M921.13 -56.7779H924.07V-55.7208H916.45V-56.7779H919.85V-67.9862L916.61 -66.0517L916.05 -66.9491L920.05 -69.4222H921.13V-56.7779Z" fill="url(#paint50_linear_175_198)"/>
<path d="M921.13 -33.985H924.07V-32.928H916.45V-33.985H919.85V-45.1934L916.61 -43.2589L916.05 -44.1563L920.05 -46.6294H921.13V-33.985Z" fill="url(#paint51_linear_175_198)"/>
<path d="M919.93 -24.036C921.356 -24.036 922.436 -23.431 923.17 -22.2211C923.916 -21.0245 924.29 -19.2827 924.29 -16.9959C924.29 -14.709 923.916 -12.9606 923.17 -11.7507C922.436 -10.5407 921.356 -9.93578 919.93 -9.93578C918.517 -9.93578 917.437 -10.5407 916.69 -11.7507C915.943 -12.9606 915.57 -14.709 915.57 -16.9959C915.57 -19.2694 915.943 -21.0112 916.69 -22.2211C917.437 -23.431 918.517 -24.036 919.93 -24.036ZM916.99 -16.9959C916.99 -15.3738 917.137 -14.104 917.43 -13.1866L921.87 -22.0217C921.403 -22.6466 920.756 -22.959 919.93 -22.959C919.01 -22.959 918.29 -22.4671 917.77 -21.4832C917.25 -20.5126 916.99 -19.0168 916.99 -16.9959ZM919.93 -11.0327C920.863 -11.0327 921.59 -11.518 922.11 -12.4886C922.63 -13.4725 922.89 -14.9749 922.89 -16.9959C922.89 -18.711 922.723 -20.0406 922.39 -20.9846L917.95 -12.0698C918.43 -11.3784 919.09 -11.0327 919.93 -11.0327Z" fill="url(#paint52_linear_175_198)"/>
<path d="M921.13 11.6006H924.07V12.6576H916.45V11.6006H919.85V0.392199L916.61 2.32674L916.05 1.42927L920.05 -1.04375H921.13V11.6006Z" fill="url(#paint53_linear_175_198)"/>
<path d="M919.93 21.5496C921.356 21.5496 922.436 22.1546 923.17 23.3645C923.916 24.5611 924.29 26.3029 924.29 28.5898C924.29 30.8766 923.916 32.625 923.17 33.8349C922.436 35.0449 921.356 35.6498 919.93 35.6498C918.517 35.6498 917.437 35.0449 916.69 33.8349C915.943 32.625 915.57 30.8766 915.57 28.5898C915.57 26.3162 915.943 24.5744 916.69 23.3645C917.437 22.1546 918.517 21.5496 919.93 21.5496ZM916.99 28.5898C916.99 30.2118 917.137 31.4816 917.43 32.399L921.87 23.5639C921.403 22.939 920.756 22.6266 919.93 22.6266C919.01 22.6266 918.29 23.1185 917.77 24.1024C917.25 25.073 916.99 26.5688 916.99 28.5898ZM919.93 34.5529C920.863 34.5529 921.59 34.0676 922.11 33.097C922.63 32.1131 922.89 30.6107 922.89 28.5898C922.89 26.8746 922.723 25.545 922.39 24.601L917.95 33.5158C918.43 34.2072 919.09 34.5529 919.93 34.5529Z" fill="url(#paint54_linear_175_198)"/>
<path d="M919.93 44.3424C921.356 44.3424 922.436 44.9474 923.17 46.1573C923.916 47.3539 924.29 49.0957 924.29 51.3826C924.29 53.6694 923.916 55.4178 923.17 56.6277C922.436 57.8376 921.356 58.4426 919.93 58.4426C918.517 58.4426 917.437 57.8376 916.69 56.6277C915.943 55.4178 915.57 53.6694 915.57 51.3826C915.57 49.109 915.943 47.3672 916.69 46.1573C917.437 44.9474 918.517 44.3424 919.93 44.3424ZM916.99 51.3826C916.99 53.0046 917.137 54.2744 917.43 55.1918L921.87 46.3567C921.403 45.7318 920.756 45.4194 919.93 45.4194C919.01 45.4194 918.29 45.9113 917.77 46.8952C917.25 47.8658 916.99 49.3616 916.99 51.3826ZM919.93 57.3457C920.863 57.3457 921.59 56.8604 922.11 55.8898C922.63 54.9059 922.89 53.4035 922.89 51.3826C922.89 49.6674 922.723 48.3378 922.39 47.3938L917.95 56.3086C918.43 57 919.09 57.3457 919.93 57.3457Z" fill="url(#paint55_linear_175_198)"/>
<path d="M921.13 79.979H924.07V81.036H916.45V79.979H919.85V68.7706L916.61 70.7051L916.05 69.8077L920.05 67.3347H921.13V79.979Z" fill="url(#paint56_linear_175_198)"/>
<path d="M919.93 89.928C921.356 89.928 922.436 90.533 923.17 91.7429C923.916 92.9395 924.29 94.6813 924.29 96.9681C924.29 99.255 923.916 101.003 923.17 102.213C922.436 103.423 921.356 104.028 919.93 104.028C918.517 104.028 917.437 103.423 916.69 102.213C915.943 101.003 915.57 99.255 915.57 96.9681C915.57 94.6946 915.943 92.9528 916.69 91.7429C917.437 90.533 918.517 89.928 919.93 89.928ZM916.99 96.9681C916.99 98.5902 917.137 99.86 917.43 100.777L921.87 91.9423C921.403 91.3174 920.756 91.005 919.93 91.005C919.01 91.005 918.29 91.497 917.77 92.4808C917.25 93.4514 916.99 94.9472 916.99 96.9681ZM919.93 102.931C920.863 102.931 921.59 102.446 922.11 101.475C922.63 100.492 922.89 98.9891 922.89 96.9681C922.89 95.253 922.723 93.9234 922.39 92.9794L917.95 101.894C918.43 102.586 919.09 102.931 919.93 102.931Z" fill="url(#paint57_linear_175_198)"/>
<path d="M921.13 125.565H924.07V126.622H916.45V125.565H919.85V114.356L916.61 116.291L916.05 115.393L920.05 112.92H921.13V125.565Z" fill="url(#paint58_linear_175_198)"/>
<path d="M921.13 148.357H924.07V149.414H916.45V148.357H919.85V137.149L916.61 139.084L916.05 138.186L920.05 135.713H921.13V148.357Z" fill="url(#paint59_linear_175_198)"/>
<path d="M957.07 -92.4144C958.497 -92.4144 959.577 -91.8094 960.31 -90.5995C961.057 -89.4029 961.43 -87.6611 961.43 -85.3743C961.43 -83.0874 961.057 -81.339 960.31 -80.1291C959.577 -78.9192 958.497 -78.3142 957.07 -78.3142C955.657 -78.3142 954.577 -78.9192 953.83 -80.1291C953.084 -81.339 952.71 -83.0874 952.71 -85.3743C952.71 -87.6478 953.084 -89.3896 953.83 -90.5995C954.577 -91.8094 955.657 -92.4144 957.07 -92.4144ZM954.13 -85.3743C954.13 -83.7522 954.277 -82.4824 954.57 -81.565L959.01 -90.4001C958.543 -91.025 957.897 -91.3374 957.07 -91.3374C956.15 -91.3374 955.43 -90.8455 954.91 -89.8616C954.39 -88.891 954.13 -87.3952 954.13 -85.3743ZM957.07 -79.4111C958.003 -79.4111 958.73 -79.8964 959.25 -80.867C959.77 -81.8509 960.03 -83.3533 960.03 -85.3743C960.03 -87.0894 959.863 -88.419 959.53 -89.363L955.09 -80.4482C955.57 -79.7568 956.23 -79.4111 957.07 -79.4111Z" fill="url(#paint60_linear_175_198)"/>
<path d="M958.27 -56.7779H961.21V-55.7208H953.59V-56.7779H956.99V-67.9862L953.75 -66.0517L953.19 -66.9491L957.19 -69.4222H958.27V-56.7779Z" fill="url(#paint61_linear_175_198)"/>
<path d="M957.07 -46.8288C958.497 -46.8288 959.577 -46.2238 960.31 -45.0139C961.057 -43.8173 961.43 -42.0755 961.43 -39.7887C961.43 -37.5018 961.057 -35.7534 960.31 -34.5435C959.577 -33.3336 958.497 -32.7286 957.07 -32.7286C955.657 -32.7286 954.577 -33.3336 953.83 -34.5435C953.084 -35.7534 952.71 -37.5018 952.71 -39.7887C952.71 -42.0622 953.084 -43.804 953.83 -45.0139C954.577 -46.2238 955.657 -46.8288 957.07 -46.8288ZM954.13 -39.7887C954.13 -38.1666 954.277 -36.8968 954.57 -35.9794L959.01 -44.8145C958.543 -45.4394 957.897 -45.7518 957.07 -45.7518C956.15 -45.7518 955.43 -45.2599 954.91 -44.276C954.39 -43.3054 954.13 -41.8096 954.13 -39.7887ZM957.07 -33.8255C958.003 -33.8255 958.73 -34.3108 959.25 -35.2814C959.77 -36.2653 960.03 -37.7677 960.03 -39.7887C960.03 -41.5038 959.863 -42.8334 959.53 -43.7774L955.09 -34.8626C955.57 -34.1712 956.23 -33.8255 957.07 -33.8255Z" fill="url(#paint62_linear_175_198)"/>
<path d="M957.07 -24.036C958.497 -24.036 959.577 -23.431 960.31 -22.2211C961.057 -21.0245 961.43 -19.2827 961.43 -16.9959C961.43 -14.709 961.057 -12.9606 960.31 -11.7507C959.577 -10.5407 958.497 -9.93578 957.07 -9.93578C955.657 -9.93578 954.577 -10.5407 953.83 -11.7507C953.084 -12.9606 952.71 -14.709 952.71 -16.9959C952.71 -19.2694 953.084 -21.0112 953.83 -22.2211C954.577 -23.431 955.657 -24.036 957.07 -24.036ZM954.13 -16.9959C954.13 -15.3738 954.277 -14.104 954.57 -13.1866L959.01 -22.0217C958.543 -22.6466 957.897 -22.959 957.07 -22.959C956.15 -22.959 955.43 -22.4671 954.91 -21.4832C954.39 -20.5126 954.13 -19.0168 954.13 -16.9959ZM957.07 -11.0327C958.003 -11.0327 958.73 -11.518 959.25 -12.4886C959.77 -13.4725 960.03 -14.9749 960.03 -16.9959C960.03 -18.711 959.863 -20.0406 959.53 -20.9846L955.09 -12.0698C955.57 -11.3784 956.23 -11.0327 957.07 -11.0327Z" fill="url(#paint63_linear_175_198)"/>
<path d="M958.27 11.6006H961.21V12.6576H953.59V11.6006H956.99V0.392199L953.75 2.32674L953.19 1.42927L957.19 -1.04375H958.27V11.6006Z" fill="url(#paint64_linear_175_198)"/>
<path d="M957.07 21.5496C958.497 21.5496 959.577 22.1546 960.31 23.3645C961.057 24.5611 961.43 26.3029 961.43 28.5898C961.43 30.8766 961.057 32.625 960.31 33.8349C959.577 35.0449 958.497 35.6498 957.07 35.6498C955.657 35.6498 954.577 35.0449 953.83 33.8349C953.084 32.625 952.71 30.8766 952.71 28.5898C952.71 26.3162 953.084 24.5744 953.83 23.3645C954.577 22.1546 955.657 21.5496 957.07 21.5496ZM954.13 28.5898C954.13 30.2118 954.277 31.4816 954.57 32.399L959.01 23.5639C958.543 22.939 957.897 22.6266 957.07 22.6266C956.15 22.6266 955.43 23.1185 954.91 24.1024C954.39 25.073 954.13 26.5688 954.13 28.5898ZM957.07 34.5529C958.003 34.5529 958.73 34.0676 959.25 33.097C959.77 32.1131 960.03 30.6107 960.03 28.5898C960.03 26.8746 959.863 25.545 959.53 24.601L955.09 33.5158C955.57 34.2072 956.23 34.5529 957.07 34.5529Z" fill="url(#paint65_linear_175_198)"/>
<path d="M958.27 57.1862H961.21V58.2432H953.59V57.1862H956.99V45.9778L953.75 47.9123L953.19 47.0149L957.19 44.5418H958.27V57.1862Z" fill="url(#paint66_linear_175_198)"/>
<path d="M957.07 67.1352C958.497 67.1352 959.577 67.7402 960.31 68.9501C961.057 70.1467 961.43 71.8885 961.43 74.1753C961.43 76.4622 961.057 78.2106 960.31 79.4205C959.577 80.6304 958.497 81.2354 957.07 81.2354C955.657 81.2354 954.577 80.6304 953.83 79.4205C953.084 78.2106 952.71 76.4622 952.71 74.1753C952.71 71.9018 953.084 70.16 953.83 68.9501C954.577 67.7402 955.657 67.1352 957.07 67.1352ZM954.13 74.1753C954.13 75.7974 954.277 77.0672 954.57 77.9846L959.01 69.1495C958.543 68.5246 957.897 68.2122 957.07 68.2122C956.15 68.2122 955.43 68.7041 954.91 69.688C954.39 70.6586 954.13 72.1544 954.13 74.1753ZM957.07 80.1385C958.003 80.1385 958.73 79.6532 959.25 78.6826C959.77 77.6987 960.03 76.1963 960.03 74.1753C960.03 72.4602 959.863 71.1306 959.53 70.1866L955.09 79.1014C955.57 79.7928 956.23 80.1385 957.07 80.1385Z" fill="url(#paint67_linear_175_198)"/>
<path d="M957.07 89.928C958.497 89.928 959.577 90.533 960.31 91.7429C961.057 92.9395 961.43 94.6813 961.43 96.9681C961.43 99.255 961.057 101.003 960.31 102.213C959.577 103.423 958.497 104.028 957.07 104.028C955.657 104.028 954.577 103.423 953.83 102.213C953.084 101.003 952.71 99.255 952.71 96.9681C952.71 94.6946 953.084 92.9528 953.83 91.7429C954.577 90.533 955.657 89.928 957.07 89.928ZM954.13 96.9681C954.13 98.5902 954.277 99.86 954.57 100.777L959.01 91.9423C958.543 91.3174 957.897 91.005 957.07 91.005C956.15 91.005 955.43 91.497 954.91 92.4808C954.39 93.4514 954.13 94.9472 954.13 96.9681ZM957.07 102.931C958.003 102.931 958.73 102.446 959.25 101.475C959.77 100.492 960.03 98.9891 960.03 96.9681C960.03 95.253 959.863 93.9234 959.53 92.9794L955.09 101.894C955.57 102.586 956.23 102.931 957.07 102.931Z" fill="url(#paint68_linear_175_198)"/>
<path d="M958.27 125.565H961.21V126.622H953.59V125.565H956.99V114.356L953.75 116.291L953.19 115.393L957.19 112.92H958.27V125.565Z" fill="url(#paint69_linear_175_198)"/>
<path d="M957.07 135.514C958.497 135.514 959.577 136.119 960.31 137.329C961.057 138.525 961.43 140.267 961.43 142.554C961.43 144.841 961.057 146.589 960.31 147.799C959.577 149.009 958.497 149.614 957.07 149.614C955.657 149.614 954.577 149.009 953.83 147.799C953.084 146.589 952.71 144.841 952.71 142.554C952.71 140.28 953.084 138.538 953.83 137.329C954.577 136.119 955.657 135.514 957.07 135.514ZM954.13 142.554C954.13 144.176 954.277 145.446 954.57 146.363L959.01 137.528C958.543 136.903 957.897 136.591 957.07 136.591C956.15 136.591 955.43 137.083 954.91 138.066C954.39 139.037 954.13 140.533 954.13 142.554ZM957.07 148.517C958.003 148.517 958.73 148.032 959.25 147.061C959.77 146.077 960.03 144.575 960.03 142.554C960.03 140.839 959.863 139.509 959.53 138.565L955.09 147.48C955.57 148.171 956.23 148.517 957.07 148.517Z" fill="url(#paint70_linear_175_198)"/>
<path d="M958.27 171.15H961.21V172.207H953.59V171.15H956.99V159.942L953.75 161.876L953.19 160.979L957.19 158.506H958.27V171.15Z" fill="url(#paint71_linear_175_198)"/>
<path d="M958.27 193.943H961.21V195H953.59V193.943H956.99V182.735L953.75 184.669L953.19 183.772L957.19 181.299H958.27V193.943Z" fill="url(#paint72_linear_175_198)"/>
<path d="M901.36 -69.6216C902.786 -69.6216 903.866 -69.0166 904.599 -67.8067C905.346 -66.6101 905.719 -64.8683 905.719 -62.5815C905.719 -60.2946 905.346 -58.5462 904.599 -57.3363C903.866 -56.1264 902.786 -55.5214 901.36 -55.5214C899.946 -55.5214 898.867 -56.1264 898.12 -57.3363C897.373 -58.5462 897 -60.2946 897 -62.5815C897 -64.855 897.373 -66.5968 898.12 -67.8067C898.867 -69.0166 899.946 -69.6216 901.36 -69.6216ZM898.42 -62.5815C898.42 -60.9594 898.567 -59.6896 898.86 -58.7722L903.3 -67.6073C902.833 -68.2322 902.186 -68.5446 901.36 -68.5446C900.44 -68.5446 899.72 -68.0527 899.2 -67.0688C898.68 -66.0982 898.42 -64.6024 898.42 -62.5815ZM901.36 -56.6183C902.293 -56.6183 903.02 -57.1036 903.54 -58.0742C904.06 -59.0581 904.319 -60.5605 904.319 -62.5815C904.319 -64.2966 904.153 -65.6262 903.82 -66.5702L899.38 -57.6554C899.86 -56.964 900.52 -56.6183 901.36 -56.6183Z" fill="url(#paint73_linear_175_198)"/>
<path d="M901.36 -46.8288C902.786 -46.8288 903.866 -46.2238 904.599 -45.0139C905.346 -43.8173 905.719 -42.0755 905.719 -39.7887C905.719 -37.5018 905.346 -35.7534 904.599 -34.5435C903.866 -33.3336 902.786 -32.7286 901.36 -32.7286C899.946 -32.7286 898.867 -33.3336 898.12 -34.5435C897.373 -35.7534 897 -37.5018 897 -39.7887C897 -42.0622 897.373 -43.804 898.12 -45.0139C898.867 -46.2238 899.946 -46.8288 901.36 -46.8288ZM898.42 -39.7887C898.42 -38.1666 898.567 -36.8968 898.86 -35.9794L903.3 -44.8145C902.833 -45.4394 902.186 -45.7518 901.36 -45.7518C900.44 -45.7518 899.72 -45.2599 899.2 -44.276C898.68 -43.3054 898.42 -41.8096 898.42 -39.7887ZM901.36 -33.8255C902.293 -33.8255 903.02 -34.3108 903.54 -35.2814C904.06 -36.2653 904.319 -37.7677 904.319 -39.7887C904.319 -41.5038 904.153 -42.8334 903.82 -43.7774L899.38 -34.8626C899.86 -34.1712 900.52 -33.8255 901.36 -33.8255Z" fill="url(#paint74_linear_175_198)"/>
<path d="M902.56 -11.1922H905.499V-10.1352H897.88V-11.1922H901.28V-22.4006L898.04 -20.4661L897.48 -21.3635L901.48 -23.8365H902.56V-11.1922Z" fill="url(#paint75_linear_175_198)"/>
<path d="M901.36 -1.24319C902.786 -1.24319 903.866 -0.638218 904.599 0.5717C905.346 1.76832 905.719 3.51007 905.719 5.79695C905.719 8.08383 905.346 9.83222 904.599 11.0421C903.866 12.2521 902.786 12.857 901.36 12.857C899.946 12.857 898.867 12.2521 898.12 11.0421C897.373 9.83222 897 8.08383 897 5.79695C897 3.52337 897.373 1.78162 898.12 0.5717C898.867 -0.638218 899.946 -1.24319 901.36 -1.24319ZM898.42 5.79695C898.42 7.41904 898.567 8.68878 898.86 9.60619L903.3 0.771136C902.833 0.146234 902.186 -0.16623 901.36 -0.16623C900.44 -0.16623 899.72 0.325722 899.2 1.30961C898.68 2.2802 898.42 3.77599 898.42 5.79695ZM901.36 11.7601C902.293 11.7601 903.02 11.2748 903.54 10.3042C904.06 9.32033 904.319 7.81791 904.319 5.79695C904.319 4.08179 904.153 2.7522 903.82 1.8082L899.38 10.723C899.86 11.4144 900.52 11.7601 901.36 11.7601Z" fill="url(#paint76_linear_175_198)"/>
<path d="M902.56 34.3934H905.499V35.4504H897.88V34.3934H901.28V23.185L898.04 25.1195L897.48 24.2221L901.48 21.7491H902.56V34.3934Z" fill="url(#paint77_linear_175_198)"/>
<path d="M902.56 57.1862H905.499V58.2432H897.88V57.1862H901.28V45.9778L898.04 47.9123L897.48 47.0149L901.48 44.5418H902.56V57.1862Z" fill="url(#paint78_linear_175_198)"/>
<path d="M939.7 -102.363H942.64V-101.306H935.02V-102.363H938.42V-113.572L935.18 -111.637L934.62 -112.535L938.62 -115.008H939.7V-102.363Z" fill="url(#paint79_linear_175_198)"/>
<path d="M938.5 -92.4144C939.927 -92.4144 941.006 -91.8094 941.74 -90.5995C942.486 -89.4029 942.86 -87.6611 942.86 -85.3743C942.86 -83.0874 942.486 -81.339 941.74 -80.1291C941.006 -78.9192 939.927 -78.3142 938.5 -78.3142C937.087 -78.3142 936.007 -78.9192 935.26 -80.1291C934.514 -81.339 934.14 -83.0874 934.14 -85.3743C934.14 -87.6478 934.514 -89.3896 935.26 -90.5995C936.007 -91.8094 937.087 -92.4144 938.5 -92.4144ZM935.56 -85.3743C935.56 -83.7522 935.707 -82.4824 936 -81.565L940.44 -90.4001C939.973 -91.025 939.327 -91.3374 938.5 -91.3374C937.58 -91.3374 936.86 -90.8455 936.34 -89.8616C935.82 -88.891 935.56 -87.3952 935.56 -85.3743ZM938.5 -79.4111C939.433 -79.4111 940.16 -79.8964 940.68 -80.867C941.2 -81.8509 941.46 -83.3533 941.46 -85.3743C941.46 -87.0894 941.293 -88.419 940.96 -89.363L936.52 -80.4482C937 -79.7568 937.66 -79.4111 938.5 -79.4111Z" fill="url(#paint80_linear_175_198)"/>
<path d="M939.7 -56.7779H942.64V-55.7208H935.02V-56.7779H938.42V-67.9862L935.18 -66.0517L934.62 -66.9491L938.62 -69.4222H939.7V-56.7779Z" fill="url(#paint81_linear_175_198)"/>
<path d="M939.7 -33.985H942.64V-32.928H935.02V-33.985H938.42V-45.1934L935.18 -43.2589L934.62 -44.1563L938.62 -46.6294H939.7V-33.985Z" fill="url(#paint82_linear_175_198)"/>
<path d="M938.5 -24.036C939.927 -24.036 941.006 -23.431 941.74 -22.2211C942.486 -21.0245 942.86 -19.2827 942.86 -16.9959C942.86 -14.709 942.486 -12.9606 941.74 -11.7507C941.006 -10.5407 939.927 -9.93578 938.5 -9.93578C937.087 -9.93578 936.007 -10.5407 935.26 -11.7507C934.514 -12.9606 934.14 -14.709 934.14 -16.9959C934.14 -19.2694 934.514 -21.0112 935.26 -22.2211C936.007 -23.431 937.087 -24.036 938.5 -24.036ZM935.56 -16.9959C935.56 -15.3738 935.707 -14.104 936 -13.1866L940.44 -22.0217C939.973 -22.6466 939.327 -22.959 938.5 -22.959C937.58 -22.959 936.86 -22.4671 936.34 -21.4832C935.82 -20.5126 935.56 -19.0168 935.56 -16.9959ZM938.5 -11.0327C939.433 -11.0327 940.16 -11.518 940.68 -12.4886C941.2 -13.4725 941.46 -14.9749 941.46 -16.9959C941.46 -18.711 941.293 -20.0406 940.96 -20.9846L936.52 -12.0698C937 -11.3784 937.66 -11.0327 938.5 -11.0327Z" fill="url(#paint83_linear_175_198)"/>
<path d="M939.7 11.6006H942.64V12.6576H935.02V11.6006H938.42V0.392199L935.18 2.32674L934.62 1.42927L938.62 -1.04375H939.7V11.6006Z" fill="url(#paint84_linear_175_198)"/>
<path d="M939.7 34.3934H942.64V35.4504H935.02V34.3934H938.42V23.185L935.18 25.1195L934.62 24.2221L938.62 21.7491H939.7V34.3934Z" fill="url(#paint85_linear_175_198)"/>
<path d="M938.5 44.3424C939.927 44.3424 941.006 44.9474 941.74 46.1573C942.486 47.3539 942.86 49.0957 942.86 51.3826C942.86 53.6694 942.486 55.4178 941.74 56.6277C941.006 57.8376 939.927 58.4426 938.5 58.4426C937.087 58.4426 936.007 57.8376 935.26 56.6277C934.514 55.4178 934.14 53.6694 934.14 51.3826C934.14 49.109 934.514 47.3672 935.26 46.1573C936.007 44.9474 937.087 44.3424 938.5 44.3424ZM935.56 51.3826C935.56 53.0046 935.707 54.2744 936 55.1918L940.44 46.3567C939.973 45.7318 939.327 45.4194 938.5 45.4194C937.58 45.4194 936.86 45.9113 936.34 46.8952C935.82 47.8658 935.56 49.3616 935.56 51.3826ZM938.5 57.3457C939.433 57.3457 940.16 56.8604 940.68 55.8898C941.2 54.9059 941.46 53.4035 941.46 51.3826C941.46 49.6674 941.293 48.3378 940.96 47.3938L936.52 56.3086C937 57 937.66 57.3457 938.5 57.3457Z" fill="url(#paint86_linear_175_198)"/>
<path d="M939.7 79.979H942.64V81.036H935.02V79.979H938.42V68.7706L935.18 70.7051L934.62 69.8077L938.62 67.3347H939.7V79.979Z" fill="url(#paint87_linear_175_198)"/>
<path d="M938.5 89.928C939.927 89.928 941.006 90.533 941.74 91.7429C942.486 92.9395 942.86 94.6813 942.86 96.9681C942.86 99.255 942.486 101.003 941.74 102.213C941.006 103.423 939.927 104.028 938.5 104.028C937.087 104.028 936.007 103.423 935.26 102.213C934.514 101.003 934.14 99.255 934.14 96.9681C934.14 94.6946 934.514 92.9528 935.26 91.7429C936.007 90.533 937.087 89.928 938.5 89.928ZM935.56 96.9681C935.56 98.5902 935.707 99.86 936 100.777L940.44 91.9423C939.973 91.3174 939.327 91.005 938.5 91.005C937.58 91.005 936.86 91.497 936.34 92.4808C935.82 93.4514 935.56 94.9472 935.56 96.9681ZM938.5 102.931C939.433 102.931 940.16 102.446 940.68 101.475C941.2 100.492 941.46 98.9891 941.46 96.9681C941.46 95.253 941.293 93.9234 940.96 92.9794L936.52 101.894C937 102.586 937.66 102.931 938.5 102.931Z" fill="url(#paint88_linear_175_198)"/>
<path d="M975.64 -115.207C977.067 -115.207 978.147 -114.602 978.88 -113.392C979.627 -112.196 980 -110.454 980 -108.167C980 -105.88 979.627 -104.132 978.88 -102.922C978.147 -101.712 977.067 -101.107 975.64 -101.107C974.227 -101.107 973.147 -101.712 972.401 -102.922C971.654 -104.132 971.281 -105.88 971.281 -108.167C971.281 -110.441 971.654 -112.182 972.401 -113.392C973.147 -114.602 974.227 -115.207 975.64 -115.207ZM972.7 -108.167C972.7 -106.545 972.847 -105.275 973.14 -104.358L977.58 -113.193C977.114 -113.818 976.467 -114.13 975.64 -114.13C974.72 -114.13 974 -113.638 973.48 -112.654C972.96 -111.684 972.7 -110.188 972.7 -108.167ZM975.64 -102.204C976.574 -102.204 977.3 -102.689 977.82 -103.66C978.34 -104.644 978.6 -106.146 978.6 -108.167C978.6 -109.882 978.433 -111.212 978.1 -112.156L973.66 -103.241C974.14 -102.55 974.8 -102.204 975.64 -102.204Z" fill="url(#paint89_linear_175_198)"/>
<path d="M976.84 -79.5707H979.78V-78.5136H972.161V-79.5707H975.56V-90.779L972.321 -88.8445L971.761 -89.7419L975.76 -92.215H976.84V-79.5707Z" fill="url(#paint90_linear_175_198)"/>
<path d="M976.84 -56.7779H979.78V-55.7208H972.161V-56.7779H975.56V-67.9862L972.321 -66.0517L971.761 -66.9491L975.76 -69.4222H976.84V-56.7779Z" fill="url(#paint91_linear_175_198)"/>
<path d="M975.64 -46.8288C977.067 -46.8288 978.147 -46.2238 978.88 -45.0139C979.627 -43.8173 980 -42.0755 980 -39.7887C980 -37.5018 979.627 -35.7534 978.88 -34.5435C978.147 -33.3336 977.067 -32.7286 975.64 -32.7286C974.227 -32.7286 973.147 -33.3336 972.401 -34.5435C971.654 -35.7534 971.281 -37.5018 971.281 -39.7887C971.281 -42.0622 971.654 -43.804 972.401 -45.0139C973.147 -46.2238 974.227 -46.8288 975.64 -46.8288ZM972.7 -39.7887C972.7 -38.1666 972.847 -36.8968 973.14 -35.9794L977.58 -44.8145C977.114 -45.4394 976.467 -45.7518 975.64 -45.7518C974.72 -45.7518 974 -45.2599 973.48 -44.276C972.96 -43.3054 972.7 -41.8096 972.7 -39.7887ZM975.64 -33.8255C976.574 -33.8255 977.3 -34.3108 977.82 -35.2814C978.34 -36.2653 978.6 -37.7677 978.6 -39.7887C978.6 -41.5038 978.433 -42.8334 978.1 -43.7774L973.66 -34.8626C974.14 -34.1712 974.8 -33.8255 975.64 -33.8255Z" fill="url(#paint92_linear_175_198)"/>
<path d="M975.64 -24.036C977.067 -24.036 978.147 -23.431 978.88 -22.2211C979.627 -21.0245 980 -19.2827 980 -16.9959C980 -14.709 979.627 -12.9606 978.88 -11.7507C978.147 -10.5407 977.067 -9.93578 975.64 -9.93578C974.227 -9.93578 973.147 -10.5407 972.401 -11.7507C971.654 -12.9606 971.281 -14.709 971.281 -16.9959C971.281 -19.2694 971.654 -21.0112 972.401 -22.2211C973.147 -23.431 974.227 -24.036 975.64 -24.036ZM972.7 -16.9959C972.7 -15.3738 972.847 -14.104 973.14 -13.1866L977.58 -22.0217C977.114 -22.6466 976.467 -22.959 975.64 -22.959C974.72 -22.959 974 -22.4671 973.48 -21.4832C972.96 -20.5126 972.7 -19.0168 972.7 -16.9959ZM975.64 -11.0327C976.574 -11.0327 977.3 -11.518 977.82 -12.4886C978.34 -13.4725 978.6 -14.9749 978.6 -16.9959C978.6 -18.711 978.433 -20.0406 978.1 -20.9846L973.66 -12.0698C974.14 -11.3784 974.8 -11.0327 975.64 -11.0327Z" fill="url(#paint93_linear_175_198)"/>
</g>
<defs>
<filter id="filter0_f_175_198" x="-558.19" y="-824.19" width="2141.38" height="1500.38" filterUnits="userSpaceOnUse" color-interpolation-filters="sRGB">
<feFlood flood-opacity="0" result="BackgroundImageFix"/>
<feBlend mode="normal" in="SourceGraphic" in2="BackgroundImageFix" result="shape"/>
<feGaussianBlur stdDeviation="200.095" result="effect1_foregroundBlur_175_198"/>
</filter>
<linearGradient id="paint0_linear_175_198" x1="52.5" y1="162" x2="52.5" y2="473.381" gradientUnits="userSpaceOnUse">
<stop stop-color="#F7DD43"/>
<stop offset="1" stop-color="#F7DD43" stop-opacity="0"/>
</linearGradient>
<linearGradient id="paint1_linear_175_198" x1="52.5" y1="162" x2="52.5" y2="473.381" gradientUnits="userSpaceOnUse">
<stop stop-color="#F7DD43"/>
<stop offset="1" stop-color="#F7DD43" stop-opacity="0"/>
</linearGradient>
<linearGradient id="paint2_linear_175_198" x1="52.5" y1="162" x2="52.5" y2="473.381" gradientUnits="userSpaceOnUse">
<stop stop-color="#F7DD43"/>
<stop offset="1" stop-color="#F7DD43" stop-opacity="0"/>
</linearGradient>
<linearGradient id="paint3_linear_175_198" x1="52.5" y1="162" x2="52.5" y2="473.381" gradientUnits="userSpaceOnUse">
<stop stop-color="#F7DD43"/>
<stop offset="1" stop-color="#F7DD43" stop-opacity="0"/>
</linearGradient>
<linearGradient id="paint4_linear_175_198" x1="52.5" y1="162" x2="52.5" y2="473.381" gradientUnits="userSpaceOnUse">
<stop stop-color="#F7DD43"/>
<stop offset="1" stop-color="#F7DD43" stop-opacity="0"/>
</linearGradient>
<linearGradient id="paint5_linear_175_198" x1="52.5" y1="162" x2="52.5" y2="473.381" gradientUnits="userSpaceOnUse">
<stop stop-color="#F7DD43"/>
<stop offset="1" stop-color="#F7DD43" stop-opacity="0"/>
</linearGradient>
<linearGradient id="paint6_linear_175_198" x1="52.5" y1="162" x2="52.5" y2="473.381" gradientUnits="userSpaceOnUse">
<stop stop-color="#F7DD43"/>
<stop offset="1" stop-color="#F7DD43" stop-opacity="0"/>
</linearGradient>
<linearGradient id="paint7_linear_175_198" x1="52.5" y1="162" x2="52.5" y2="473.381" gradientUnits="userSpaceOnUse">
<stop stop-color="#F7DD43"/>
<stop offset="1" stop-color="#F7DD43" stop-opacity="0"/>
</linearGradient>
<linearGradient id="paint8_linear_175_198" x1="52.5" y1="162" x2="52.5" y2="473.381" gradientUnits="userSpaceOnUse">
<stop stop-color="#F7DD43"/>
<stop offset="1" stop-color="#F7DD43" stop-opacity="0"/>
</linearGradient>
<linearGradient id="paint9_linear_175_198" x1="52.5" y1="162" x2="52.5" y2="473.381" gradientUnits="userSpaceOnUse">
<stop stop-color="#F7DD43"/>
<stop offset="1" stop-color="#F7DD43" stop-opacity="0"/>
</linearGradient>
<linearGradient id="paint10_linear_175_198" x1="52.5" y1="162" x2="52.5" y2="473.381" gradientUnits="userSpaceOnUse">
<stop stop-color="#F7DD43"/>
<stop offset="1" stop-color="#F7DD43" stop-opacity="0"/>
</linearGradient>
<linearGradient id="paint11_linear_175_198" x1="52.5" y1="162" x2="52.5" y2="473.381" gradientUnits="userSpaceOnUse">
<stop stop-color="#F7DD43"/>
<stop offset="1" stop-color="#F7DD43" stop-opacity="0"/>
</linearGradient>
<linearGradient id="paint12_linear_175_198" x1="52.5" y1="162" x2="52.5" y2="473.381" gradientUnits="userSpaceOnUse">
<stop stop-color="#F7DD43"/>
<stop offset="1" stop-color="#F7DD43" stop-opacity="0"/>
</linearGradient>
<linearGradient id="paint13_linear_175_198" x1="52.5" y1="162" x2="52.5" y2="473.381" gradientUnits="userSpaceOnUse">
<stop stop-color="#F7DD43"/>
<stop offset="1" stop-color="#F7DD43" stop-opacity="0"/>
</linearGradient>
<linearGradient id="paint14_linear_175_198" x1="52.5" y1="162" x2="52.5" y2="473.381" gradientUnits="userSpaceOnUse">
<stop stop-color="#F7DD43"/>
<stop offset="1" stop-color="#F7DD43" stop-opacity="0"/>
</linearGradient>
<linearGradient id="paint15_linear_175_198" x1="52.5" y1="162" x2="52.5" y2="473.381" gradientUnits="userSpaceOnUse">
<stop stop-color="#F7DD43"/>
<stop offset="1" stop-color="#F7DD43" stop-opacity="0"/>
</linearGradient>
<linearGradient id="paint16_linear_175_198" x1="52.5" y1="162" x2="52.5" y2="473.381" gradientUnits="userSpaceOnUse">
<stop stop-color="#F7DD43"/>
<stop offset="1" stop-color="#F7DD43" stop-opacity="0"/>
</linearGradient>
<linearGradient id="paint17_linear_175_198" x1="52.5" y1="162" x2="52.5" y2="473.381" gradientUnits="userSpaceOnUse">
<stop stop-color="#F7DD43"/>
<stop offset="1" stop-color="#F7DD43" stop-opacity="0"/>
</linearGradient>
<linearGradient id="paint18_linear_175_198" x1="52.5" y1="162" x2="52.5" y2="473.381" gradientUnits="userSpaceOnUse">
<stop stop-color="#F7DD43"/>
<stop offset="1" stop-color="#F7DD43" stop-opacity="0"/>
</linearGradient>
<linearGradient id="paint19_linear_175_198" x1="52.5" y1="162" x2="52.5" y2="473.381" gradientUnits="userSpaceOnUse">
<stop stop-color="#F7DD43"/>
<stop offset="1" stop-color="#F7DD43" stop-opacity="0"/>
</linearGradient>
<linearGradient id="paint20_linear_175_198" x1="52.5" y1="162" x2="52.5" y2="473.381" gradientUnits="userSpaceOnUse">
<stop stop-color="#F7DD43"/>
<stop offset="1" stop-color="#F7DD43" stop-opacity="0"/>
</linearGradient>
<linearGradient id="paint21_linear_175_198" x1="52.5" y1="162" x2="52.5" y2="473.381" gradientUnits="userSpaceOnUse">
<stop stop-color="#F7DD43"/>
<stop offset="1" stop-color="#F7DD43" stop-opacity="0"/>
</linearGradient>
<linearGradient id="paint22_linear_175_198" x1="52.5" y1="162" x2="52.5" y2="473.381" gradientUnits="userSpaceOnUse">
<stop stop-color="#F7DD43"/>
<stop offset="1" stop-color="#F7DD43" stop-opacity="0"/>
</linearGradient>
<linearGradient id="paint23_linear_175_198" x1="52.5" y1="162" x2="52.5" y2="473.381" gradientUnits="userSpaceOnUse">
<stop stop-color="#F7DD43"/>
<stop offset="1" stop-color="#F7DD43" stop-opacity="0"/>
</linearGradient>
<linearGradient id="paint24_linear_175_198" x1="52.5" y1="162" x2="52.5" y2="473.381" gradientUnits="userSpaceOnUse">
<stop stop-color="#F7DD43"/>
<stop offset="1" stop-color="#F7DD43" stop-opacity="0"/>
</linearGradient>
<linearGradient id="paint25_linear_175_198" x1="52.5" y1="162" x2="52.5" y2="473.381" gradientUnits="userSpaceOnUse">
<stop stop-color="#F7DD43"/>
<stop offset="1" stop-color="#F7DD43" stop-opacity="0"/>
</linearGradient>
<linearGradient id="paint26_linear_175_198" x1="52.5" y1="162" x2="52.5" y2="473.381" gradientUnits="userSpaceOnUse">
<stop stop-color="#F7DD43"/>
<stop offset="1" stop-color="#F7DD43" stop-opacity="0"/>
</linearGradient>
<linearGradient id="paint27_linear_175_198" x1="52.5" y1="162" x2="52.5" y2="473.381" gradientUnits="userSpaceOnUse">
<stop stop-color="#F7DD43"/>
<stop offset="1" stop-color="#F7DD43" stop-opacity="0"/>
</linearGradient>
<linearGradient id="paint28_linear_175_198" x1="52.5" y1="162" x2="52.5" y2="473.381" gradientUnits="userSpaceOnUse">
<stop stop-color="#F7DD43"/>
<stop offset="1" stop-color="#F7DD43" stop-opacity="0"/>
</linearGradient>
<linearGradient id="paint29_linear_175_198" x1="52.5" y1="162" x2="52.5" y2="473.381" gradientUnits="userSpaceOnUse">
<stop stop-color="#F7DD43"/>
<stop offset="1" stop-color="#F7DD43" stop-opacity="0"/>
</linearGradient>
<linearGradient id="paint30_linear_175_198" x1="52.5" y1="162" x2="52.5" y2="473.381" gradientUnits="userSpaceOnUse">
<stop stop-color="#F7DD43"/>
<stop offset="1" stop-color="#F7DD43" stop-opacity="0"/>
</linearGradient>
<linearGradient id="paint31_linear_175_198" x1="52.5" y1="162" x2="52.5" y2="473.381" gradientUnits="userSpaceOnUse">
<stop stop-color="#F7DD43"/>
<stop offset="1" stop-color="#F7DD43" stop-opacity="0"/>
</linearGradient>
<linearGradient id="paint32_linear_175_198" x1="52.5" y1="162" x2="52.5" y2="473.381" gradientUnits="userSpaceOnUse">
<stop stop-color="#F7DD43"/>
<stop offset="1" stop-color="#F7DD43" stop-opacity="0"/>
</linearGradient>
<linearGradient id="paint33_linear_175_198" x1="52.5" y1="162" x2="52.5" y2="473.381" gradientUnits="userSpaceOnUse">
<stop stop-color="#F7DD43"/>
<stop offset="1" stop-color="#F7DD43" stop-opacity="0"/>
</linearGradient>
<linearGradient id="paint34_linear_175_198" x1="52.5" y1="162" x2="52.5" y2="473.381" gradientUnits="userSpaceOnUse">
<stop stop-color="#F7DD43"/>
<stop offset="1" stop-color="#F7DD43" stop-opacity="0"/>
</linearGradient>
<linearGradient id="paint35_linear_175_198" x1="52.5" y1="162" x2="52.5" y2="473.381" gradientUnits="userSpaceOnUse">
<stop stop-color="#F7DD43"/>
<stop offset="1" stop-color="#F7DD43" stop-opacity="0"/>
</linearGradient>
<linearGradient id="paint36_linear_175_198" x1="52.5" y1="162" x2="52.5" y2="473.381" gradientUnits="userSpaceOnUse">
<stop stop-color="#F7DD43"/>
<stop offset="1" stop-color="#F7DD43" stop-opacity="0"/>
</linearGradient>
<linearGradient id="paint37_linear_175_198" x1="52.5" y1="162" x2="52.5" y2="473.381" gradientUnits="userSpaceOnUse">
<stop stop-color="#F7DD43"/>
<stop offset="1" stop-color="#F7DD43" stop-opacity="0"/>
</linearGradient>
<linearGradient id="paint38_linear_175_198" x1="52.5" y1="162" x2="52.5" y2="473.381" gradientUnits="userSpaceOnUse">
<stop stop-color="#F7DD43"/>
<stop offset="1" stop-color="#F7DD43" stop-opacity="0"/>
</linearGradient>
<linearGradient id="paint39_linear_175_198" x1="52.5" y1="162" x2="52.5" y2="473.381" gradientUnits="userSpaceOnUse">
<stop stop-color="#F7DD43"/>
<stop offset="1" stop-color="#F7DD43" stop-opacity="0"/>
</linearGradient>
<linearGradient id="paint40_linear_175_198" x1="52.5" y1="162" x2="52.5" y2="473.381" gradientUnits="userSpaceOnUse">
<stop stop-color="#F7DD43"/>
<stop offset="1" stop-color="#F7DD43" stop-opacity="0"/>
</linearGradient>
<linearGradient id="paint41_linear_175_198" x1="52.5" y1="162" x2="52.5" y2="473.381" gradientUnits="userSpaceOnUse">
<stop stop-color="#F7DD43"/>
<stop offset="1" stop-color="#F7DD43" stop-opacity="0"/>
</linearGradient>
<linearGradient id="paint42_linear_175_198" x1="52.5" y1="162" x2="52.5" y2="473.381" gradientUnits="userSpaceOnUse">
<stop stop-color="#F7DD43"/>
<stop offset="1" stop-color="#F7DD43" stop-opacity="0"/>
</linearGradient>
<linearGradient id="paint43_linear_175_198" x1="52.5" y1="162" x2="52.5" y2="473.381" gradientUnits="userSpaceOnUse">
<stop stop-color="#F7DD43"/>
<stop offset="1" stop-color="#F7DD43" stop-opacity="0"/>
</linearGradient>
<linearGradient id="paint44_linear_175_198" x1="52.5" y1="162" x2="52.5" y2="473.381" gradientUnits="userSpaceOnUse">
<stop stop-color="#F7DD43"/>
<stop offset="1" stop-color="#F7DD43" stop-opacity="0"/>
</linearGradient>
<linearGradient id="paint45_linear_175_198" x1="52.5" y1="162" x2="52.5" y2="473.381" gradientUnits="userSpaceOnUse">
<stop stop-color="#F7DD43"/>
<stop offset="1" stop-color="#F7DD43" stop-opacity="0"/>
</linearGradient>
<linearGradient id="paint46_linear_175_198" x1="52.5" y1="162" x2="52.5" y2="473.381" gradientUnits="userSpaceOnUse">
<stop stop-color="#F7DD43"/>
<stop offset="1" stop-color="#F7DD43" stop-opacity="0"/>
</linearGradient>
<linearGradient id="paint47_linear_175_198" x1="938.5" y1="-138" x2="938.5" y2="160.818" gradientUnits="userSpaceOnUse">
<stop stop-color="#F7DD43"/>
<stop offset="1" stop-color="#F7DD43" stop-opacity="0"/>
</linearGradient>
<linearGradient id="paint48_linear_175_198" x1="938.5" y1="-138" x2="938.5" y2="160.818" gradientUnits="userSpaceOnUse">
<stop stop-color="#F7DD43"/>
<stop offset="1" stop-color="#F7DD43" stop-opacity="0"/>
</linearGradient>
<linearGradient id="paint49_linear_175_198" x1="938.5" y1="-138" x2="938.5" y2="160.818" gradientUnits="userSpaceOnUse">
<stop stop-color="#F7DD43"/>
<stop offset="1" stop-color="#F7DD43" stop-opacity="0"/>
</linearGradient>
<linearGradient id="paint50_linear_175_198" x1="938.5" y1="-138" x2="938.5" y2="160.818" gradientUnits="userSpaceOnUse">
<stop stop-color="#F7DD43"/>
<stop offset="1" stop-color="#F7DD43" stop-opacity="0"/>
</linearGradient>
<linearGradient id="paint51_linear_175_198" x1="938.5" y1="-138" x2="938.5" y2="160.818" gradientUnits="userSpaceOnUse">
<stop stop-color="#F7DD43"/>
<stop offset="1" stop-color="#F7DD43" stop-opacity="0"/>
</linearGradient>
<linearGradient id="paint52_linear_175_198" x1="938.5" y1="-138" x2="938.5" y2="160.818" gradientUnits="userSpaceOnUse">
<stop stop-color="#F7DD43"/>
<stop offset="1" stop-color="#F7DD43" stop-opacity="0"/>
</linearGradient>
<linearGradient id="paint53_linear_175_198" x1="938.5" y1="-138" x2="938.5" y2="160.818" gradientUnits="userSpaceOnUse">
<stop stop-color="#F7DD43"/>
<stop offset="1" stop-color="#F7DD43" stop-opacity="0"/>
</linearGradient>
<linearGradient id="paint54_linear_175_198" x1="938.5" y1="-138" x2="938.5" y2="160.818" gradientUnits="userSpaceOnUse">
<stop stop-color="#F7DD43"/>
<stop offset="1" stop-color="#F7DD43" stop-opacity="0"/>
</linearGradient>
<linearGradient id="paint55_linear_175_198" x1="938.5" y1="-138" x2="938.5" y2="160.818" gradientUnits="userSpaceOnUse">
<stop stop-color="#F7DD43"/>
<stop offset="1" stop-color="#F7DD43" stop-opacity="0"/>
</linearGradient>
<linearGradient id="paint56_linear_175_198" x1="938.5" y1="-138" x2="938.5" y2="160.818" gradientUnits="userSpaceOnUse">
<stop stop-color="#F7DD43"/>
<stop offset="1" stop-color="#F7DD43" stop-opacity="0"/>
</linearGradient>
<linearGradient id="paint57_linear_175_198" x1="938.5" y1="-138" x2="938.5" y2="160.818" gradientUnits="userSpaceOnUse">
<stop stop-color="#F7DD43"/>
<stop offset="1" stop-color="#F7DD43" stop-opacity="0"/>
</linearGradient>
<linearGradient id="paint58_linear_175_198" x1="938.5" y1="-138" x2="938.5" y2="160.818" gradientUnits="userSpaceOnUse">
<stop stop-color="#F7DD43"/>
<stop offset="1" stop-color="#F7DD43" stop-opacity="0"/>
</linearGradient>
<linearGradient id="paint59_linear_175_198" x1="938.5" y1="-138" x2="938.5" y2="160.818" gradientUnits="userSpaceOnUse">
<stop stop-color="#F7DD43"/>
<stop offset="1" stop-color="#F7DD43" stop-opacity="0"/>
</linearGradient>
<linearGradient id="paint60_linear_175_198" x1="938.5" y1="-138" x2="938.5" y2="160.818" gradientUnits="userSpaceOnUse">
<stop stop-color="#F7DD43"/>
<stop offset="1" stop-color="#F7DD43" stop-opacity="0"/>
</linearGradient>
<linearGradient id="paint61_linear_175_198" x1="938.5" y1="-138" x2="938.5" y2="160.818" gradientUnits="userSpaceOnUse">
<stop stop-color="#F7DD43"/>
<stop offset="1" stop-color="#F7DD43" stop-opacity="0"/>
</linearGradient>
<linearGradient id="paint62_linear_175_198" x1="938.5" y1="-138" x2="938.5" y2="160.818" gradientUnits="userSpaceOnUse">
<stop stop-color="#F7DD43"/>
<stop offset="1" stop-color="#F7DD43" stop-opacity="0"/>
</linearGradient>
<linearGradient id="paint63_linear_175_198" x1="938.5" y1="-138" x2="938.5" y2="160.818" gradientUnits="userSpaceOnUse">
<stop stop-color="#F7DD43"/>
<stop offset="1" stop-color="#F7DD43" stop-opacity="0"/>
</linearGradient>
<linearGradient id="paint64_linear_175_198" x1="938.5" y1="-138" x2="938.5" y2="160.818" gradientUnits="userSpaceOnUse">
<stop stop-color="#F7DD43"/>
<stop offset="1" stop-color="#F7DD43" stop-opacity="0"/>
</linearGradient>
<linearGradient id="paint65_linear_175_198" x1="938.5" y1="-138" x2="938.5" y2="160.818" gradientUnits="userSpaceOnUse">
<stop stop-color="#F7DD43"/>
<stop offset="1" stop-color="#F7DD43" stop-opacity="0"/>
</linearGradient>
<linearGradient id="paint66_linear_175_198" x1="938.5" y1="-138" x2="938.5" y2="160.818" gradientUnits="userSpaceOnUse">
<stop stop-color="#F7DD43"/>
<stop offset="1" stop-color="#F7DD43" stop-opacity="0"/>
</linearGradient>
<linearGradient id="paint67_linear_175_198" x1="938.5" y1="-138" x2="938.5" y2="160.818" gradientUnits="userSpaceOnUse">
<stop stop-color="#F7DD43"/>
<stop offset="1" stop-color="#F7DD43" stop-opacity="0"/>
</linearGradient>
<linearGradient id="paint68_linear_175_198" x1="938.5" y1="-138" x2="938.5" y2="160.818" gradientUnits="userSpaceOnUse">
<stop stop-color="#F7DD43"/>
<stop offset="1" stop-color="#F7DD43" stop-opacity="0"/>
</linearGradient>
<linearGradient id="paint69_linear_175_198" x1="938.5" y1="-138" x2="938.5" y2="160.818" gradientUnits="userSpaceOnUse">
<stop stop-color="#F7DD43"/>
<stop offset="1" stop-color="#F7DD43" stop-opacity="0"/>
</linearGradient>
<linearGradient id="paint70_linear_175_198" x1="938.5" y1="-138" x2="938.5" y2="160.818" gradientUnits="userSpaceOnUse">
<stop stop-color="#F7DD43"/>
<stop offset="1" stop-color="#F7DD43" stop-opacity="0"/>
</linearGradient>
<linearGradient id="paint71_linear_175_198" x1="938.5" y1="-138" x2="938.5" y2="160.818" gradientUnits="userSpaceOnUse">
<stop stop-color="#F7DD43"/>
<stop offset="1" stop-color="#F7DD43" stop-opacity="0"/>
</linearGradient>
<linearGradient id="paint72_linear_175_198" x1="938.5" y1="-138" x2="938.5" y2="160.818" gradientUnits="userSpaceOnUse">
<stop stop-color="#F7DD43"/>
<stop offset="1" stop-color="#F7DD43" stop-opacity="0"/>
</linearGradient>
<linearGradient id="paint73_linear_175_198" x1="938.5" y1="-138" x2="938.5" y2="160.818" gradientUnits="userSpaceOnUse">
<stop stop-color="#F7DD43"/>
<stop offset="1" stop-color="#F7DD43" stop-opacity="0"/>
</linearGradient>
<linearGradient id="paint74_linear_175_198" x1="938.5" y1="-138" x2="938.5" y2="160.818" gradientUnits="userSpaceOnUse">
<stop stop-color="#F7DD43"/>
<stop offset="1" stop-color="#F7DD43" stop-opacity="0"/>
</linearGradient>
<linearGradient id="paint75_linear_175_198" x1="938.5" y1="-138" x2="938.5" y2="160.818" gradientUnits="userSpaceOnUse">
<stop stop-color="#F7DD43"/>
<stop offset="1" stop-color="#F7DD43" stop-opacity="0"/>
</linearGradient>
<linearGradient id="paint76_linear_175_198" x1="938.5" y1="-138" x2="938.5" y2="160.818" gradientUnits="userSpaceOnUse">
<stop stop-color="#F7DD43"/>
<stop offset="1" stop-color="#F7DD43" stop-opacity="0"/>
</linearGradient>
<linearGradient id="paint77_linear_175_198" x1="938.5" y1="-138" x2="938.5" y2="160.818" gradientUnits="userSpaceOnUse">
<stop stop-color="#F7DD43"/>
<stop offset="1" stop-color="#F7DD43" stop-opacity="0"/>
</linearGradient>
<linearGradient id="paint78_linear_175_198" x1="938.5" y1="-138" x2="938.5" y2="160.818" gradientUnits="userSpaceOnUse">
<stop stop-color="#F7DD43"/>
<stop offset="1" stop-color="#F7DD43" stop-opacity="0"/>
</linearGradient>
<linearGradient id="paint79_linear_175_198" x1="938.5" y1="-138" x2="938.5" y2="160.818" gradientUnits="userSpaceOnUse">
<stop stop-color="#F7DD43"/>
<stop offset="1" stop-color="#F7DD43" stop-opacity="0"/>
</linearGradient>
<linearGradient id="paint80_linear_175_198" x1="938.5" y1="-138" x2="938.5" y2="160.818" gradientUnits="userSpaceOnUse">
<stop stop-color="#F7DD43"/>
<stop offset="1" stop-color="#F7DD43" stop-opacity="0"/>
</linearGradient>
<linearGradient id="paint81_linear_175_198" x1="938.5" y1="-138" x2="938.5" y2="160.818" gradientUnits="userSpaceOnUse">
<stop stop-color="#F7DD43"/>
<stop offset="1" stop-color="#F7DD43" stop-opacity="0"/>
</linearGradient>
<linearGradient id="paint82_linear_175_198" x1="938.5" y1="-138" x2="938.5" y2="160.818" gradientUnits="userSpaceOnUse">
<stop stop-color="#F7DD43"/>
<stop offset="1" stop-color="#F7DD43" stop-opacity="0"/>
</linearGradient>
<linearGradient id="paint83_linear_175_198" x1="938.5" y1="-138" x2="938.5" y2="160.818" gradientUnits="userSpaceOnUse">
<stop stop-color="#F7DD43"/>
<stop offset="1" stop-color="#F7DD43" stop-opacity="0"/>
</linearGradient>
<linearGradient id="paint84_linear_175_198" x1="938.5" y1="-138" x2="938.5" y2="160.818" gradientUnits="userSpaceOnUse">
<stop stop-color="#F7DD43"/>
<stop offset="1" stop-color="#F7DD43" stop-opacity="0"/>
</linearGradient>
<linearGradient id="paint85_linear_175_198" x1="938.5" y1="-138" x2="938.5" y2="160.818" gradientUnits="userSpaceOnUse">
<stop stop-color="#F7DD43"/>
<stop offset="1" stop-color="#F7DD43" stop-opacity="0"/>
</linearGradient>
<linearGradient id="paint86_linear_175_198" x1="938.5" y1="-138" x2="938.5" y2="160.818" gradientUnits="userSpaceOnUse">
<stop stop-color="#F7DD43"/>
<stop offset="1" stop-color="#F7DD43" stop-opacity="0"/>
</linearGradient>
<linearGradient id="paint87_linear_175_198" x1="938.5" y1="-138" x2="938.5" y2="160.818" gradientUnits="userSpaceOnUse">
<stop stop-color="#F7DD43"/>
<stop offset="1" stop-color="#F7DD43" stop-opacity="0"/>
</linearGradient>
<linearGradient id="paint88_linear_175_198" x1="938.5" y1="-138" x2="938.5" y2="160.818" gradientUnits="userSpaceOnUse">
<stop stop-color="#F7DD43"/>
<stop offset="1" stop-color="#F7DD43" stop-opacity="0"/>
</linearGradient>
<linearGradient id="paint89_linear_175_198" x1="938.5" y1="-138" x2="938.5" y2="160.818" gradientUnits="userSpaceOnUse">
<stop stop-color="#F7DD43"/>
<stop offset="1" stop-color="#F7DD43" stop-opacity="0"/>
</linearGradient>
<linearGradient id="paint90_linear_175_198" x1="938.5" y1="-138" x2="938.5" y2="160.818" gradientUnits="userSpaceOnUse">
<stop stop-color="#F7DD43"/>
<stop offset="1" stop-color="#F7DD43" stop-opacity="0"/>
</linearGradient>
<linearGradient id="paint91_linear_175_198" x1="938.5" y1="-138" x2="938.5" y2="160.818" gradientUnits="userSpaceOnUse">
<stop stop-color="#F7DD43"/>
<stop offset="1" stop-color="#F7DD43" stop-opacity="0"/>
</linearGradient>
<linearGradient id="paint92_linear_175_198" x1="938.5" y1="-138" x2="938.5" y2="160.818" gradientUnits="userSpaceOnUse">
<stop stop-color="#F7DD43"/>
<stop offset="1" stop-color="#F7DD43" stop-opacity="0"/>
</linearGradient>
<linearGradient id="paint93_linear_175_198" x1="938.5" y1="-138" x2="938.5" y2="160.818" gradientUnits="userSpaceOnUse">
<stop stop-color="#F7DD43"/>
<stop offset="1" stop-color="#F7DD43" stop-opacity="0"/>
</linearGradient>
</defs>
</svg>
